HIERARCHY
ROOT hip
{
  OFFSET 0 0 0
  CHANNELS 6 Xposition Yposition Zposition Zrotation Yrotation Xrotation
  JOINT abdomen
  {
    OFFSET 0 20.6881 -0.73152
    CHANNELS 3 Zrotation Xrotation Yrotation
    JOINT chest
    {
      OFFSET 0 11.7043 -0.48768
      CHANNELS 3 Zrotation Xrotation Yrotation
      JOINT neck
      {
        OFFSET 0 22.1894 -2.19456
        CHANNELS 3 Zrotation Xrotation Yrotation
        JOINT head
        {
          OFFSET -0.24384 7.07133 1.2192
          CHANNELS 3 Zrotation Xrotation Yrotation
          JOINT leftEye
          {
            OFFSET 4.14528 8.04674 8.04672
            CHANNELS 3 Zrotation Xrotation Yrotation
            End Site
            {
              OFFSET 1 0 0
            }
          }
          JOINT rightEye
          {
            OFFSET -3.6576 8.04674 8.04672
            CHANNELS 3 Zrotation Xrotation Yrotation
            End Site
            {
              OFFSET 1 0 0
            }
          }
        }
      }
      JOINT rCollar
      {
        OFFSET -2.68224 19.2634 -4.8768
        CHANNELS 3 Zrotation Xrotation Yrotation
        JOINT rShldr
        {
          OFFSET -8.77824 -1.95073 1.46304
          CHANNELS 3 Zrotation Xrotation Yrotation
          JOINT rForeArm
          {
            OFFSET -28.1742 -1.7115 0.48768
            CHANNELS 3 Zrotation Xrotation Yrotation
            JOINT rHand
            {
              OFFSET -22.5879 0.773209 7.07136
              CHANNELS 3 Zrotation Xrotation Yrotation
              JOINT rThumb1
              {
                OFFSET -1.2192 -0.487915 3.41376
                CHANNELS 3 Zrotation Xrotation Yrotation
                JOINT rThumb2
                {
                  OFFSET -3.37035 -0.52449 3.41376
                  CHANNELS 3 Zrotation Xrotation Yrotation
                  End Site
                  {
                    OFFSET -1.78271 -1.18214 1.43049
                  }
                }
              }
              JOINT rIndex1
              {
                OFFSET -7.75947 0.938293 5.60832
                CHANNELS 3 Zrotation Xrotation Yrotation
                JOINT rIndex2
                {
                  OFFSET -2.54057 -0.884171 1.56538
                  CHANNELS 3 Zrotation Xrotation Yrotation
                  End Site
                  {
                    OFFSET -1.62519 -0.234802 1.16502
                  }
                }
              }
              JOINT rMid1
              {
                OFFSET -8.24714 1.18213 3.41376
                CHANNELS 3 Zrotation Xrotation Yrotation
                JOINT rMid2
                {
                  OFFSET -3.10165 -0.590103 1.0647
                  CHANNELS 3 Zrotation Xrotation Yrotation
                  End Site
                  {
                    OFFSET -2.48547 -0.328903 0.83742
                  }
                }
              }
              JOINT rRing1
              {
                OFFSET -8.82822 0.546677 1.51678
                CHANNELS 3 Zrotation Xrotation Yrotation
                JOINT rRing2
                {
                  OFFSET -2.60934 -0.819778 -0.0198488
                  CHANNELS 3 Zrotation Xrotation Yrotation
                  End Site
                  {
                    OFFSET -2.33842 -0.294052 0.168128
                  }
                }
              }
              JOINT rPinky1
              {
                OFFSET -8.27202 -0.0477905 -0.4584
                CHANNELS 3 Zrotation Xrotation Yrotation
                JOINT rPinky2
                {
                  OFFSET -1.82734 -0.647385 -0.700984
                  CHANNELS 3 Zrotation Xrotation Yrotation
                  End Site
                  {
                    OFFSET -1.69225 -0.51767 -0.607171
                  }
                }
              }
            }
          }
        }
      }
      JOINT lCollar
      {
        OFFSET 2.68224 19.2634 -4.8768
        CHANNELS 3 Zrotation Xrotation Yrotation
        JOINT lShldr
        {
          OFFSET 8.77824 -1.95073 1.46304
          CHANNELS 3 Zrotation Xrotation Yrotation
          JOINT lForeArm
          {
            OFFSET 28.1742 -1.7115 0.48768
            CHANNELS 3 Zrotation Xrotation Yrotation
            JOINT lHand
            {
              OFFSET 22.5879 0.773209 7.07136
              CHANNELS 3 Zrotation Xrotation Yrotation
              JOINT lThumb1
              {
                OFFSET 1.2192 -0.487915 3.41376
                CHANNELS 3 Zrotation Xrotation Yrotation
                JOINT lThumb2
                {
                  OFFSET 3.37035 -0.52449 3.41376
                  CHANNELS 3 Zrotation Xrotation Yrotation
                  End Site
                  {
                    OFFSET 1.78271 -1.18214 1.43049
                  }
                }
              }
              JOINT lIndex1
              {
                OFFSET 7.75947 0.938293 5.60832
                CHANNELS 3 Zrotation Xrotation Yrotation
                JOINT lIndex2
                {
                  OFFSET 2.54057 -0.884171 1.56538
                  CHANNELS 3 Zrotation Xrotation Yrotation
                  End Site
                  {
                    OFFSET 1.62519 -0.234802 1.16502
                  }
                }
              }
              JOINT lMid1
              {
                OFFSET 8.24714 1.18213 3.41376
                CHANNELS 3 Zrotation Xrotation Yrotation
                JOINT lMid2
                {
                  OFFSET 3.10165 -0.590103 1.0647
                  CHANNELS 3 Zrotation Xrotation Yrotation
                  End Site
                  {
                    OFFSET 2.48547 -0.328903 0.83742
                  }
                }
              }
              JOINT lRing1
              {
                OFFSET 8.82822 0.546677 1.51678
                CHANNELS 3 Zrotation Xrotation Yrotation
                JOINT lRing2
                {
                  OFFSET 2.60934 -0.819778 -0.0198488
                  CHANNELS 3 Zrotation Xrotation Yrotation
                  End Site
                  {
                    OFFSET 2.33842 -0.294052 0.168128
                  }
                }
              }
              JOINT lPinky1
              {
                OFFSET 8.27202 -0.0477905 -0.4584
                CHANNELS 3 Zrotation Xrotation Yrotation
                JOINT lPinky2
                {
                  OFFSET 1.82734 -0.647385 -0.700984
                  CHANNELS 3 Zrotation Xrotation Yrotation
                  End Site
                  {
                    OFFSET 1.69225 -0.51767 -0.607171
                  }
                }
              }
            }
          }
        }
      }
    }
  }
  JOINT rButtock
  {
    OFFSET -8.77824 4.35084 1.2192
    CHANNELS 3 Zrotation Xrotation Yrotation
    JOINT rThigh
    {
      OFFSET 0 -1.70687 -2.19456
      CHANNELS 3 Zrotation Xrotation Yrotation
      JOINT rShin
      {
        OFFSET 0 -36.8199 0.73152
        CHANNELS 3 Zrotation Xrotation Yrotation
        JOINT rFoot
        {
          OFFSET 0.73152 -45.1104 -5.12064
          CHANNELS 3 Zrotation Xrotation Yrotation
          End Site
          {
            OFFSET -1.1221 -3.69964 12.103
          }
        }
      }
    }
  }
  JOINT lButtock
  {
    OFFSET 8.77824 4.35084 1.2192
    CHANNELS 3 Zrotation Xrotation Yrotation
    JOINT lThigh
    {
      OFFSET 0 -1.70687 -2.19456
      CHANNELS 3 Zrotation Xrotation Yrotation
      JOINT lShin
      {
        OFFSET 0 -36.8199 0.73152
        CHANNELS 3 Zrotation Xrotation Yrotation
        JOINT lFoot
        {
          OFFSET -0.73152 -45.1104 -5.12064
          CHANNELS 3 Zrotation Xrotation Yrotation
          End Site
          {
            OFFSET 1.1221 -3.69964 12.103
          }
        }
      }
    }
  }
}
MOTION
Frames:	7
Frame Time:	0.00833333
-159.197 82.4541 -26.3625 170.731 61.1672 -539.93 -2.32513 10.8978 -7.90508 3.65895 -0.748803 -2.27986 0.536585 5.18433 -2.55749 13.1809 -38.4891 0.0899007 -0.0 0.0 0.0 -0.0 0.0 0.0 -7.54421e-14 1.5823e-13 3.84791e-13 67.4829 50.2085 5.62404 -20.4659 -13.6074 39.8398 -0.452356 -18.779 -2.73879 -3.73641e-10 -2.3274e-10 -3.94455e-10 -6.43623e-10 -4.07184e-10 -6.90828e-10 -3.73635e-10 -2.32741e-10 -3.94473e-10 7.73091 5.47488 0.417314 -3.73639e-10 -2.32746e-10 -3.94462e-10 2.90554 0.965183 0.102902 -3.73634e-10 -2.32745e-10 -3.94462e-10 10.2786 0.731801 0.0259123 -3.73645e-10 -2.32746e-10 -3.94452e-10 2.22167 -0.733487 -0.20892 -7.56236e-14 1.58209e-13 3.8458e-13 -80.4346 50.2501 -2.74492 10.7693 -4.60741 -19.2799 0.219017 -13.2888 1.90173 -1.2093e-09 -1.55462e-09 9.47553e-10 -2.09482e-09 -2.69863e-09 1.61972e-09 -1.20931e-09 -1.55462e-09 9.47558e-10 -7.73091 5.47488 -0.417314 -1.2093e-09 -1.55462e-09 9.47548e-10 -2.90554 0.965183 -0.102902 -1.20931e-09 -1.55462e-09 9.47556e-10 -10.2786 0.731801 -0.0259123 -1.20929e-09 -1.55462e-09 9.47554e-10 -2.22167 -0.733487 0.20892 -2.03217e-16 0.0 -3.88251e-19 -6.35692 -37.7062 -0.203423 -2.04797 70.153 2.58468 -3.68739 -18.267 -7.75311 2.03217e-16 0.0 3.88251e-19 -7.67272 -26.0636 9.76533 0.252834 38.0665 -0.604737 2.71456 -20.9371 5.49437
-158.054 82.4433 -26.9137 170.475 60.458 -540.185 -2.17363 10.9671 -8.42126 3.75952 -0.68487 -2.40763 0.537568 5.09696 -2.52898 13.1288 -38.5613 0.147346 -0.0 0.0 0.0 -0.0 0.0 0.0 -7.10224e-14 6.66524e-14 2.7655e-13 69.5449 48.6084 2.55039 -19.9699 -12.9771 38.5991 -0.478871 -19.2928 -2.81973 -5.74995e-10 -9.2478e-12 1.95407e-10 -1.0026e-09 -1.70302e-11 3.29382e-10 -5.74987e-10 -9.24902e-12 1.9539e-10 7.73091 5.47488 0.417314 -5.74992e-10 -9.25513e-12 1.95402e-10 2.90554 0.965183 0.102902 -5.74989e-10 -9.25277e-12 1.954e-10 10.2786 0.731801 0.0259123 -5.74997e-10 -9.25302e-12 1.95412e-10 2.22167 -0.733487 -0.20892 -7.1248e-14 6.66347e-14 2.76348e-13 -79.1116 47.9036 -6.80128 10.5433 -4.46894 -18.8408 0.18175 -12.11 1.72772 -1.39783e-09 -1.2435e-09 4.30758e-10 -2.41627e-09 -2.15995e-09 7.26998e-10 -1.39783e-09 -1.2435e-09 4.30762e-10 -7.73091 5.47488 -0.417314 -1.39782e-09 -1.2435e-09 4.30744e-10 -2.90554 0.965183 -0.102902 -1.39784e-09 -1.2435e-09 4.30757e-10 -10.2786 0.731801 -0.0259123 -1.39782e-09 -1.2435e-09 4.30753e-10 -2.22167 -0.733487 0.20892 -2.03217e-16 0.0 -3.88251e-19 -6.58464 -39.5769 0.358561 -1.96718 69.631 2.51682 -3.76167 -19.0713 -7.70343 2.03217e-16 0.0 3.88251e-19 -8.13393 -24.802 8.96361 0.231016 37.503 -0.652916 2.85013 -21.367 5.66504
-156.894 82.45 -27.4705 170.207 59.7896 -540.451 -2.04798 11.0134 -8.91065 3.87189 -0.606639 -2.5292 0.548821 5.01258 -2.49254 13.0212 -38.6375 0.198094 -0.0 0.0 0.0 -0.0 0.0 0.0 -8.73523e-14 -9.22299e-14 2.86349e-13 71.3221 47.2733 -0.273611 -19.4917 -12.3857 37.4599 -0.49937 -19.6711 -2.8798 -4.72687e-10 1.49426e-10 5.58171e-10 -8.3259e-10 2.5967e-10 9.59876e-10 -4.72679e-10 1.49425e-10 5.58156e-10 7.73091 5.47488 0.417314 -4.72685e-10 1.49419e-10 5.58168e-10 2.90554 0.965183 0.102902 -4.72682e-10 1.49422e-10 5.58165e-10 10.2786 0.731801 0.0259123 -4.72689e-10 1.49422e-10 5.58178e-10 2.22167 -0.733487 -0.20892 -8.75838e-14 -9.22435e-14 2.86151e-13 -78.027 46.4563 -10.5199 10.5476 -4.48086 -18.8325 0.167093 -11.5715 1.64897 -1.49895e-09 -1.19694e-09 7.06083e-13 -2.58682e-09 -2.07972e-09 -1.65771e-11 -1.49895e-09 -1.19694e-09 7.09264e-13 -7.73091 5.47488 -0.417314 -1.49894e-09 -1.19694e-09 6.87e-13 -2.90554 0.965183 -0.102902 -1.49896e-09 -1.19694e-09 7.02903e-13 -10.2786 0.731801 -0.0259123 -1.49894e-09 -1.19694e-09 6.96541e-13 -2.22167 -0.733487 0.20892 -2.03217e-16 0.0 -3.88251e-19 -6.82062 -41.3305 0.883175 -1.86573 68.9173 2.42677 -3.80904 -19.7167 -7.6382 2.03217e-16 0.0 3.88251e-19 -8.59039 -23.4488 8.18256 0.207824 36.7905 -0.697116 2.99671 -21.7266 5.87613
-155.718 82.4874 -28.0345 169.915 59.1706 -540.737 -1.94669 11.0414 -9.37093 3.99764 -0.506371 -2.6438 0.567153 4.93313 -2.45008 12.8472 -38.7397 0.238142 -0.0 0.0 0.0 -0.0 0.0 0.0 -1.42086e-13 -3.69877e-13 5.08346e-13 72.8891 46.308 -2.92541 -19.0453 -11.8508 36.4308 -0.509211 -19.8466 -2.90782 1.5629e-10 2.2101e-10 5.38586e-10 2.5425e-10 3.83922e-10 9.34565e-10 1.56297e-10 2.21011e-10 5.38572e-10 7.73091 5.47488 0.417314 1.56292e-10 2.21006e-10 5.38584e-10 2.90554 0.965183 0.102902 1.56295e-10 2.21009e-10 5.38581e-10 10.2786 0.731801 0.0259123 1.56288e-10 2.21009e-10 5.38593e-10 2.22167 -0.733487 -0.20892 -1.42261e-13 -3.69884e-13 5.0814e-13 -76.8368 46.1308 -14.1439 10.813 -4.6491 -19.3411 0.177183 -11.9117 1.69892 -1.54846e-09 -1.66252e-09 -3.15092e-10 -2.66795e-09 -2.88704e-09 -5.6528e-10 -1.54846e-09 -1.66252e-09 -3.15089e-10 -7.73091 5.47488 -0.417314 -1.54845e-09 -1.66253e-09 -3.15112e-10 -2.90554 0.965183 -0.102902 -1.54847e-09 -1.66252e-09 -3.15096e-10 -10.2786 0.731801 -0.0259123 -1.54845e-09 -1.66252e-09 -3.15103e-10 -2.22167 -0.733487 0.20892 -2.03217e-16 0.0 -3.88251e-19 -7.08338 -42.9512 1.38095 -1.74515 67.9843 2.31587 -3.82452 -20.1995 -7.54503 2.03217e-16 0.0 3.88251e-19 -9.05828 -21.9867 7.38964 0.182383 35.9055 -0.737239 3.16622 -22.0118 6.15587
-154.53 82.5444 -28.6046 169.585 58.609 -541.046 -1.85676 11.0538 -9.805 4.13978 -0.382793 -2.75165 0.590357 4.85489 -2.40246 12.6197 -38.8659 0.271099 -0.0 0.0 0.0 -0.0 0.0 0.0 -2.26568e-13 -7.49644e-13 8.79942e-13 74.3285 45.6263 -5.47211 -18.6436 -11.3918 35.4959 -0.511058 -19.8806 -2.91324 1.15207e-09 2.07153e-10 2.63395e-10 1.97925e-09 3.58986e-10 4.71121e-10 1.15207e-09 2.07156e-10 2.63385e-10 7.73091 5.47488 0.417314 1.15207e-09 2.07154e-10 2.63395e-10 2.90554 0.965183 0.102902 1.15207e-09 2.07157e-10 2.63392e-10 10.2786 0.731801 0.0259123 1.15207e-09 2.07157e-10 2.63403e-10 2.22167 -0.733487 -0.20892 -2.26645e-13 -7.49644e-13 8.79718e-13 -75.3195 46.6096 -17.8573 11.2952 -4.95519 -20.2829 0.207289 -12.888 1.84271 -1.53301e-09 -2.47426e-09 -5.9809e-10 -2.63616e-09 -4.29417e-09 -1.05861e-09 -1.53301e-09 -2.47426e-09 -5.98087e-10 -7.73091 5.47488 -0.417314 -1.533e-09 -2.47427e-09 -5.98107e-10 -2.90554 0.965183 -0.102902 -1.53301e-09 -2.47426e-09 -5.98093e-10 -10.2786 0.731801 -0.0259123 -1.533e-09 -2.47426e-09 -5.98101e-10 -2.22167 -0.733487 0.20892 -2.03217e-16 0.0 -3.88251e-19 -7.35889 -44.4577 1.8671 -1.61178 66.8417 2.19072 -3.81152 -20.5191 -7.43019 2.03217e-16 0.0 3.88251e-19 -9.51801 -20.4408 6.5658 0.154968 34.8934 -0.775029 3.36813 -22.2358 6.52015
-153.332 82.6115 -29.178 169.212 58.1089 -541.38 -1.79368 11.0391 -10.2154 4.29272 -0.254292 -2.85434 0.627377 4.77626 -2.34475 12.3532 -38.9681 0.30322 -0.0 0.0 0.0 -0.0 0.0 0.0 -3.07567e-13 -1.12823e-12 1.23623e-12 75.7282 45.1028 -7.93076 -18.273 -10.9834 34.6361 -0.51074 -19.8788 -2.91288 2.13278e-09 1.56728e-10 -1.31408e-11 3.67876e-09 2.70154e-10 4.98578e-12 2.13278e-09 1.56734e-10 -1.3149e-11 7.73091 5.47488 0.417314 2.13278e-09 1.56734e-10 -1.31395e-11 2.90554 0.965183 0.102902 2.13279e-09 1.56736e-10 -1.31432e-11 10.2786 0.731801 0.0259123 2.13278e-09 1.56737e-10 -1.31325e-11 2.22167 -0.733487 -0.20892 -3.07544e-13 -1.12822e-12 1.23599e-12 -73.3175 47.5911 -21.7644 11.9395 -5.39023 -21.5299 0.251431 -14.146 2.02992 -1.38208e-09 -3.19957e-09 -8.49095e-10 -2.37077e-09 -5.55141e-09 -1.49483e-09 -1.38208e-09 -3.19958e-09 -8.49092e-10 -7.73091 5.47488 -0.417314 -1.38208e-09 -3.19958e-09 -8.49108e-10 -2.90554 0.965183 -0.102902 -1.38209e-09 -3.19958e-09 -8.49097e-10 -10.2786 0.731801 -0.0259123 -1.38207e-09 -3.19958e-09 -8.49106e-10 -2.22167 -0.733487 0.20892 -2.03217e-16 0.0 -3.88251e-19 -7.64986 -45.8742 2.2887 -1.47625 65.5435 2.06198 -3.77958 -20.6839 -7.31475 2.03217e-16 0.0 3.88251e-19 -9.93744 -18.8326 5.80042 0.126566 33.7727 -0.80933 3.56784 -22.3967 6.89286
-152.125 82.6784 -29.7515 168.792 57.672 -541.739 -1.77327 10.9858 -10.6046 4.45076 -0.13925 -2.95345 0.687191 4.69562 -2.27203 12.0622 -38.9984 0.340701 -0.0 0.0 0.0 -0.0 0.0 0.0 -3.51853e-13 -1.40233e-12 1.41232e-12 77.1415 44.6124 -10.2932 -17.9168 -10.5976 33.834 -0.514215 -19.9466 -2.92361 2.71656e-09 1.18609e-10 -3.6764e-11 4.68915e-09 2.02722e-10 -2.83984e-11 2.71656e-09 1.18616e-10 -3.67704e-11 7.73091 5.47488 0.417314 2.71656e-09 1.18617e-10 -3.67609e-11 2.90554 0.965183 0.102902 2.71657e-09 1.18619e-10 -3.67648e-11 10.2786 0.731801 0.0259123 2.71656e-09 1.1862e-10 -3.67545e-11 2.22167 -0.733487 -0.20892 -3.51768e-13 -1.40232e-12 1.41207e-12 -70.7653 48.7749 -25.9065 12.6904 -5.94482 -22.9545 0.29725 -15.3315 2.20819 -1.02517e-09 -3.40589e-09 -1.06892e-09 -1.75107e-09 -5.90903e-09 -1.8722e-09 -1.02517e-09 -3.40589e-09 -1.06891e-09 -7.73091 5.47488 -0.417314 -1.02517e-09 -3.40589e-09 -1.06893e-09 -2.90554 0.965183 -0.102902 -1.02517e-09 -3.40589e-09 -1.06892e-09 -10.2786 0.731801 -0.0259123 -1.02516e-09 -3.40589e-09 -1.06893e-09 -2.22167 -0.733487 0.20892 -2.03217e-16 0.0 -3.88251e-19 -7.9651 -47.2255 2.58821 -1.34624 64.1442 1.93739 -3.73854 -20.7022 -7.22006 2.03217e-16 0.0 3.88251e-19 -10.2964 -17.1861 5.17852 0.0983675 32.5619 -0.839099 3.72952 -22.4935 7.1974
